<?xml version="1.0" encoding="UTF-8"?>
<svg id="_レイヤー_2" data-name="レイヤー 2" xmlns="http://www.w3.org/2000/svg" viewBox="0 0 53.56 52.46">
  <defs>
    <style>
      .cls-1 {
        fill: none;
        stroke: #1b1c80;
        stroke-linecap: round;
        stroke-linejoin: round;
        stroke-width: 2.2px;
      }
    </style>
  </defs>
  <path class="cls-1" d="m1.21,12.06c-.43-1.3.43-3.03,1.88-3.9s5.35-2.46,6.36-2.89,2.89,0,3.61,1.3,4.77,6.36,5.06,7.08.58,2.02-.29,2.89-3.18,2.89-3.61,3.32-.43,1.73,0,2.6,4.33,6.07,6.65,8.24,8.81,6.5,9.97,7.08,2.17-.58,2.75-1.16,1.16-1.59,1.73-2.17,1.44-1.16,2.75-.29,7.66,5.2,8.67,5.92,1.01,1.3.58,2.75-3.32,6.36-4.05,7.22-1.69,1.76-3.62,1.04c-9.9-3.71-17.93-7.93-24.44-14.44S1.78,19.48,1.21,12.06Z"/>
  <path class="cls-1" d="m41.09,26.51c0-7.75-6.29-14.04-14.04-14.04"/>
  <path class="cls-1" d="m46.89,26.51c0-10.96-8.88-19.84-19.84-19.84"/>
  <path class="cls-1" d="m52.46,26.51c0-14.03-11.38-25.41-25.41-25.41"/>
</svg>