<?xml version="1.0" encoding="UTF-8"?>
<svg id="Isolation_Mode" data-name="Isolation Mode" xmlns="http://www.w3.org/2000/svg" viewBox="0 0 380 60">
  <defs>
    <style>
      .cls-1 {
        fill: #fff;
      }

      .cls-2 {
        fill: #bb94f7;
      }

      .cls-3 {
        fill: #d5d5d5;
      }
    </style>
  </defs>
  <circle class="cls-3" cx="190" cy="30" r="10"/>
  <circle class="cls-3" cx="130" cy="30" r="10"/>
  <circle class="cls-3" cx="250" cy="30" r="10"/>
  <g>
    <circle class="cls-2" cx="190" cy="30" r="20"/>
    <path id="path15315" class="cls-1" d="m185,23.1v13.8c0,.28.3.45.54.31l11.95-6.9c.24-.14.24-.48,0-.62l-11.95-6.9c-.24-.14-.54.03-.54.31Z"/>
  </g>
  <g>
    <circle class="cls-2" cx="30" cy="30" r="30"/>
    <g id="g15359">
      <path id="path15355" class="cls-1" d="m40.69,20.9v18.19c0,.41-.45.67-.81.47l-15.76-9.1c-.36-.21-.36-.73,0-.93l15.76-9.1c.36-.21.81.05.81.47Z"/>
      <path id="path15357" class="cls-1" d="m19.85,19.97c-.3,0-.54.24-.54.54v18.98c0,.3.24.54.54.54h2.93c.3,0,.54-.24.54-.54v-18.98c0-.3-.24-.54-.54-.54h-2.93Z"/>
    </g>
  </g>
  <g>
    <circle class="cls-2" cx="350" cy="30" r="30"/>
    <g id="g15365">
      <path id="path15361" class="cls-1" d="m339.31,20.9v18.19c0,.41.45.67.81.47l15.76-9.1c.36-.21.36-.73,0-.93l-15.76-9.1c-.36-.21-.81.05-.81.47Z"/>
      <path id="path15363" class="cls-1" d="m360.15,19.97c.3,0,.54.24.54.54v18.98c0,.3-.24.54-.54.54h-2.93c-.3,0-.54-.24-.54-.54v-18.98c0-.3.24-.54.54-.54h2.93Z"/>
    </g>
  </g>
</svg>