<?xml version="1.0" encoding="UTF-8"?>
<svg id="_レイヤー_1" data-name="レイヤー 1" xmlns="http://www.w3.org/2000/svg" viewBox="0 0 360 84">
  <defs>
    <style>
      .cls-1 {
        fill: #2f2f2f;
      }
    </style>
  </defs>
  <g>
    <polygon class="cls-1" points="113.31 13.24 103.81 13.24 114.17 49.57 114.17 82 123.56 82 123.56 49.57 134.09 13.24 124.76 13.24 118.94 33.68 113.31 13.24"/>
    <polygon class="cls-1" points="151.91 82 179.58 82 179.58 72.95 161.3 72.95 161.3 52.08 170.22 52.08 170.22 43.15 161.3 43.15 161.3 22.4 179.58 22.4 179.58 13.24 151.91 13.24 151.91 82"/>
    <polygon class="cls-1" points="197.41 82 225.08 82 225.08 72.95 206.8 72.95 206.8 52.08 215.71 52.08 215.71 43.15 206.8 43.15 206.8 22.4 225.08 22.4 225.08 13.24 197.41 13.24 197.41 82"/>
    <polygon class="cls-1" points="242.9 82 270.57 82 270.57 72.95 252.3 72.95 252.3 52.08 261.21 52.08 261.21 43.15 252.3 43.15 252.3 22.4 270.57 22.4 270.57 13.24 242.9 13.24 242.9 82"/>
    <polygon class="cls-1" points="341.43 13.24 332.03 13.24 332.03 82 358.15 82 358.15 72.78 341.43 72.78 341.43 13.24"/>
    <polygon class="cls-1" points="297.48 13.24 288.09 13.24 288.09 82 314.21 82 314.21 72.78 297.48 72.78 297.48 13.24"/>
  </g>
  <g>
    <g>
      <g>
        <path class="cls-1" d="m20.52,42.38c6.69,6.14,11.86,9.54,19.89,14.72,0,0-22.64-8.11-33.06-2.59,3.42-5.89,8.95-9.62,13.18-12.12Z"/>
        <path class="cls-1" d="m57.87,59.66C44.82,51.22,19.29,40.59,1.85,13.67c5.67,4.99,10.59,6.8,15.07,6.78,12.24-.06,18.08-9.91,34.03-12.33,14.24-2.15,30.13,5.11,30.13,5.11,0,0-24.93,3.53-28.47,20.42-2.63,12.55,5.26,26.01,5.26,26.01Z"/>
      </g>
      <polygon class="cls-1" points="53.04 82 49.22 82 85.2 13.24 89.02 13.24 53.04 82"/>
    </g>
    <polygon class="cls-1" points="91.09 2 86.2 11.34 90.02 11.34 94.9 2 91.09 2"/>
    <polygon class="cls-1" points="95.22 7.2 85.88 2.32 85.88 6.13 95.22 11.02 95.22 7.2"/>
  </g>
</svg>